<svg width="30" height="30" viewBox="0 0 30 30" fill="none" xmlns="http://www.w3.org/2000/svg">
<path fill-rule="evenodd" clip-rule="evenodd" d="M15 3.75C11.5772 3.75 8.51139 5.27859 6.44803 7.69035L9.25223 12.5412C10.2072 10.3118 12.4212 8.75 15 8.75H24.3556C22.3374 5.73504 18.9005 3.75 15 3.75ZM1.25 15C1.25 11.9834 2.22143 9.19368 3.86852 6.92661C3.90791 6.86154 3.95345 6.79973 4.0049 6.74214C6.51383 3.40688 10.505 1.25 15 1.25C20.6101 1.25 25.4355 4.60982 27.5738 9.42707C27.5984 9.47473 27.62 9.52418 27.6385 9.57516C28.3538 11.2395 28.75 13.0735 28.75 15C28.75 22.5939 22.5939 28.75 15 28.75C14.5091 28.75 14.0242 28.7243 13.5466 28.6741C13.4897 28.6717 13.4327 28.6654 13.3761 28.6551C6.54753 27.8517 1.25 22.0445 1.25 15ZM15.7344 26.2264C21.6053 25.8481 26.25 20.9665 26.25 15C26.25 13.6851 26.0244 12.4229 25.6099 11.25H20.0005C20.7851 12.2946 21.25 13.593 21.25 15C21.25 16.2295 20.895 17.3761 20.2819 18.3428L15.7344 26.2264ZM15.7441 21.2062L12.9429 26.0624C7.71207 25.0958 3.75 20.5106 3.75 15C3.75 13.2128 4.16675 11.5229 4.90838 10.0222L9.45906 17.8942C10.5031 19.8889 12.5926 21.25 15 21.25C15.2518 21.25 15.5001 21.2351 15.7441 21.2062ZM18.2957 16.7906C18.2769 16.8179 18.2591 16.8462 18.2422 16.8754L18.1486 17.0376C17.4803 18.0682 16.3198 18.75 15 18.75C13.6475 18.75 12.4623 18.034 11.8026 16.9604C11.7887 16.9314 11.7735 16.9027 11.7572 16.8744L11.6581 16.7029C11.3972 16.1919 11.25 15.6131 11.25 15C11.25 12.9289 12.9289 11.25 15 11.25C17.0711 11.25 18.75 12.9289 18.75 15C18.75 15.6485 18.5854 16.2585 18.2957 16.7906Z" fill="white"/>
</svg>
