<svg width="42" height="48" viewBox="0 0 42 48" fill="none" xmlns="http://www.w3.org/2000/svg">
<g clip-path="url(#clip0_97_125)">
<path fill-rule="evenodd" clip-rule="evenodd" d="M24.929 17.0986C26.4359 16.3664 28.3533 15.2886 30.273 13.812C30.6778 14.631 30.7221 15.3458 30.5136 15.9229C30.3658 16.3296 30.0873 16.6834 29.7212 16.9648C29.3246 17.269 28.8294 17.4904 28.2819 17.6101C27.2432 17.8381 26.0303 17.705 24.929 17.0986ZM25.1903 24.6003L27.185 25.723C23.1121 27.9474 22.0049 32.0776 20.6896 36.1005C19.3745 32.0776 18.2671 27.9474 14.1944 25.723L16.1891 24.6003C16.3821 24.5293 16.547 24.4005 16.6603 24.2325C16.7736 24.0645 16.8294 23.8659 16.8197 23.6651C16.6369 19.8976 17.6809 18.2315 19.0891 17.1854C19.5942 16.8107 20.1456 16.6226 20.6896 16.6226C21.2336 16.6226 21.785 16.8107 22.2903 17.1854C23.6985 18.2315 24.7425 19.8976 24.5597 23.6651C24.5501 23.8659 24.6059 24.0645 24.7191 24.2325C24.8324 24.4005 24.9973 24.5293 25.1903 24.6003ZM20.6896 0C22.9954 0.06032 25.3069 0.49648 27.3129 1.34496C28.7021 1.93328 29.9983 2.7104 31.1721 3.63968C31.7021 4.0592 32.1386 4.46448 32.6193 4.93104C33.9161 4.97472 35.8111 3.57104 36.6909 2.2576C35.1768 7.0944 28.2675 12.8062 23.484 14.9918C23.4821 14.991 23.4808 14.9899 23.4793 14.989C22.6208 14.3502 21.6553 14.0309 20.6896 14.0309C19.7239 14.0309 18.7586 14.3502 17.9001 14.989C17.8987 14.9898 17.8973 14.9912 17.8954 14.9918C13.1118 12.8062 6.2026 7.0944 4.68848 2.2576C5.56812 3.57104 7.46319 4.97472 8.75991 4.93104C9.24086 4.46464 9.67731 4.0592 10.2072 3.63968C11.3809 2.7104 12.6771 1.93328 14.0663 1.34496C16.0726 0.49648 18.384 0.06032 20.6896 0ZM16.4502 17.0986C14.9435 16.3664 13.0259 15.2886 11.1064 13.812C10.7016 14.631 10.6573 15.3458 10.8657 15.9229C11.0136 16.3296 11.2921 16.6834 11.6581 16.9648C12.0548 17.269 12.5501 17.4904 13.0975 17.6101C14.1363 17.8381 15.3489 17.705 16.4502 17.0986Z" fill="#181D42"/>
<path fill-rule="evenodd" clip-rule="evenodd" d="M32.3755 12.0026C33.4323 10.9634 34.3635 9.81312 35.1123 8.78672L35.4926 9.48416C36.7169 11.8709 37.353 14.248 37.353 16.9232L37.3504 21.1683L37.3734 23.369C37.4621 28.7715 38.6617 34.2376 41.3793 39.2398L35.6934 34.7723L31.6703 41.1338L27.4437 37.2568L20.6897 47.9366L13.9356 37.257L9.7092 41.1339L5.68604 34.7725L0 39.24C2.71757 34.2378 3.91724 28.7717 4.00608 23.3691L4.02906 21.1685L4.02644 16.9234C4.02644 14.248 4.6624 11.8709 5.88703 9.48432L6.26716 8.78688C7.01593 9.81328 7.94696 10.9634 9.00394 12.0027L8.67389 12.6707C8.03268 13.9682 7.82036 15.4189 8.31987 16.7986C8.64187 17.6872 9.22956 18.4493 9.98719 19.031C10.7228 19.596 11.5934 19.9768 12.5049 20.1768C13.0987 20.307 13.7036 20.3606 14.3046 20.3424C14.1644 21.117 14.1031 21.9203 14.0992 22.7389L8.73563 25.7574L12.8745 28.0181C13.2054 28.1988 13.5203 28.4059 13.8161 28.6371C17.2284 31.6224 19.28 40.4539 20.6898 44.7677C22.0998 40.4539 24.1512 31.6224 27.5637 28.6371C27.8595 28.4058 28.1744 28.1988 28.5053 28.0181L32.6442 25.7574L27.2805 22.7389C27.2765 21.9203 27.2153 21.117 27.075 20.3424C27.676 20.3606 28.281 20.307 28.8747 20.1768C29.7862 19.9768 30.657 19.596 31.3924 19.031C32.1499 18.4493 32.7378 17.6872 33.0596 16.7986C33.5593 15.4189 33.3468 13.9683 32.7057 12.6707L32.3757 12.0027L32.3755 12.0026Z" fill="#181D42"/>
</g>
<defs>
<clipPath id="clip0_97_125">
<rect width="41.3793" height="48" fill="white"/>
</clipPath>
</defs>
</svg>
