<svg width="42" height="48" viewBox="0 0 42 48" fill="none" xmlns="http://www.w3.org/2000/svg">
<g clip-path="url(#clip0_97_118)">
<path d="M30.7656 5.85621L23.6899 9.9695L20.6723 8.22658L17.3425 10.1786L10.2321 6.06536L20.6723 0L30.7656 5.85621Z" fill="#211E4C"/>
<path d="M41.3793 11.9913V16.0697L34.2689 20.183L25.9098 25.0632L18.9727 29.0719L10.579 33.9172L14.2209 36.0436L7.14513 40.1569L0 36.0087V31.9303L7.07576 27.817L15.4695 22.9717L22.3719 18.963L30.7657 14.0828L27.1584 11.9913L34.2342 7.878L41.3793 11.9913Z" fill="#211E4C"/>
<path d="M31.1125 41.9695L20.6723 48L10.6136 42.1438L17.6894 38.0305L20.6723 39.7734L24.0368 37.8562L31.1125 41.9695Z" fill="#211E4C"/>
<path d="M19.5277 15.4771L12.7641 19.4161L7.07576 16.1046V23.8083L0 27.9216V11.9913L6.76359 8.05229L13.874 12.1656L19.5277 15.4771Z" fill="#211E4C"/>
<path d="M41.3793 20.0784V36.0087L34.581 39.9477L27.5052 35.8344L21.8516 32.5577L28.6152 28.6187L34.2688 31.8954V24.1917L41.3793 20.0784Z" fill="#211E4C"/>
</g>
<defs>
<clipPath id="clip0_97_118">
<rect width="41.3793" height="48" fill="white"/>
</clipPath>
</defs>
</svg>
