<svg width="108" height="64" viewBox="0 0 108 64" fill="none" xmlns="http://www.w3.org/2000/svg">
<g clip-path="url(#clip0_97_97)">
<path d="M108 0V20.9726C96.1791 33.4944 76.3881 41.7391 54 41.7391C31.6119 41.7391 11.8657 33.4944 0 20.9726V0H108Z" fill="#CCFF54"/>
<path d="M108 20.9727V64H0V20.9727C11.8657 33.4944 31.6119 41.7392 54 41.7392C76.3881 41.7392 96.1791 33.4944 108 20.9727Z" fill="#88FF33"/>
<path d="M12.403 5.47504H5.73132V12.0013H12.403V5.47504Z" fill="#211E4C"/>
<path d="M102.269 5.47504H95.597V12.0013H102.269V5.47504Z" fill="#211E4C"/>
<path d="M12.403 51.2H5.73132V57.7263H12.403V51.2Z" fill="#211E4C"/>
<path d="M102.269 51.2H95.5969V57.7263H102.269V51.2Z" fill="#211E4C"/>
</g>
<defs>
<clipPath id="clip0_97_97">
<rect width="108" height="64" fill="white"/>
</clipPath>
</defs>
</svg>
